<svg id="Layer_1" data-name="Layer 1" xmlns="http://www.w3.org/2000/svg" viewBox="0 0 434.38 99.32"><defs><style>.cls-1,.cls-3{fill:#004274;}.cls-2{fill:#fff;}.cls-2,.cls-3{fill-rule:evenodd;}</style></defs><rect class="cls-1" y="0.01" width="91.68" height="91.68" rx="10.22"/><path class="cls-2" d="M134.64,182.75H123.71a.58.58,0,0,1-.57-.57v-2.71l-8.23,8.23a.58.58,0,0,1-.81,0L106.37,180a.58.58,0,0,1,0-.81l1.92-1.92H96.65a.58.58,0,0,1-.57-.57V165.74a.57.57,0,0,1,.57-.57h2.71l-8.23-8.23a.58.58,0,0,1,0-.81l7.73-7.73a.58.58,0,0,1,.81,0l1.91,1.91V138.68a.57.57,0,0,1,.58-.57h10.93a.57.57,0,0,1,.57.57v2.7l8.23-8.22a.58.58,0,0,1,.81,0l7.73,7.73a.58.58,0,0,1,0,.81l-1.92,1.91h11.64a.58.58,0,0,1,.57.58v10.93a.58.58,0,0,1-.57.57h-2.71l8.23,8.23a.58.58,0,0,1,0,.81l-7.73,7.72a.56.56,0,0,1-.81,0l-1.91-1.91v11.64a.58.58,0,0,1-.58.57Zm-1.41-30.46-4.27,3.4h-5.25a.58.58,0,0,1-.57-.57V144.19l-.62,5.42-3.71,3.71a.59.59,0,0,1-.82,0L113.66,149l-3.39-3.4,3.39,4.27v5.26a.58.58,0,0,1-.57.57H102.16l5.42.62h0l3.71,3.71a.56.56,0,0,1,0,.81l-7.72,7.73,4.27-3.39h5.25a.57.57,0,0,1,.57.57v10.93l.62-5.42,3.71-3.72a.59.59,0,0,1,.82,0l7.72,7.73L123.14,171v-5.25a.57.57,0,0,1,.57-.57h10.93l-5.42-.62-3.71-3.72a.56.56,0,0,1,0-.81l4.33-4.33h0Zm0,0Zm-10.09-8.1Z" transform="translate(-72.56 -114.58)"/><path class="cls-3" d="M213.19,151.3c.13,4.27-3.24,7.35-7.51,7.35H194.46v-14.4h11.3a7.16,7.16,0,0,1,7.43,7.05Zm278.19-26.47v42.88A1.31,1.31,0,0,1,490,169h-9a1.34,1.34,0,0,1-1.4-1.24V124.83H465.52a1.34,1.34,0,0,1-1.23-1.4v-7.35a1.31,1.31,0,0,1,1.23-1.4H505.7a1.32,1.32,0,0,1,1.24,1.4v7.35a1.34,1.34,0,0,1-1.24,1.4ZM266.5,167.17V160a1.31,1.31,0,0,0-1.31-1.31h-21a3.86,3.86,0,0,1-3.82-4.15V144.26h22.35A1.31,1.31,0,0,0,264,143v-7.25a1.31,1.31,0,0,0-1.47-1.32H240.34v-5.78a3.79,3.79,0,0,1,3.82-3.81h21a1.3,1.3,0,0,0,1.37-1.32V116a1.34,1.34,0,0,0-1.47-1.32l-21.83-.1A14.67,14.67,0,0,0,228.57,129V154.7A14.44,14.44,0,0,0,242.89,169h22.28a1.29,1.29,0,0,0,1.33-1.31v-.47Zm89.06-27.09v-.39a13.26,13.26,0,0,0,4.16-3.94,16.4,16.4,0,0,0,2.42-5.71l3.56-13.82a1.29,1.29,0,0,0-1.29-1.54H356a2.07,2.07,0,0,0-.89.17,1.23,1.23,0,0,0-.66.92l-3.48,13a11.29,11.29,0,0,1-1.65,3.78,7,7,0,0,1-2.29,2.09,7.9,7.9,0,0,1-2.53.89,15,15,0,0,1-2.43.18H335.9V116a1.28,1.28,0,0,0-1.29-1.28h-9.08a1.32,1.32,0,0,0-1.4,1.23v51.79a1.34,1.34,0,0,0,1.4,1.24h9a1.3,1.3,0,0,0,1.39-1.24v-23h6.27a15.65,15.65,0,0,1,4.56.5,6.32,6.32,0,0,1,3.09,1.94,11.05,11.05,0,0,1,2,4.06l4.76,16.8a1.28,1.28,0,0,0,1.24.93h9a1.3,1.3,0,0,0,1.35-1.55l-4.8-18a32.27,32.27,0,0,0-1-3.16,10.68,10.68,0,0,0-1.37-2.57,8.58,8.58,0,0,0-2.14-2.05,14.37,14.37,0,0,0-3.33-1.58Zm32.58,8,2.94-9.81,2.95-11h.46l2.87,11,2.94,9.81Zm14.94,9.6,3,10.06c.26.92.75,1.24,1.34,1.24h9.79a1.31,1.31,0,0,0,1.29-1.69l-16.06-48.33c-.76-2.35-1.88-4.25-4.62-4.25l-6.95,0a3.87,3.87,0,0,0-3.53,1.62,8.25,8.25,0,0,0-1.23,2.61l-16,48.27a1.31,1.31,0,0,0,1.26,1.75h9.41a1.27,1.27,0,0,0,1.34-.8,4.83,4.83,0,0,0,.24-.67l3-9.83Zm48.22-25.72a7.1,7.1,0,0,1-7.11,7.11H433.64v-14.2h10.07a7.13,7.13,0,0,1,7.59,7.1Zm-17.66,35.39V149.18h12.87a17.21,17.21,0,0,0,17.09-17.54,16.67,16.67,0,0,0-1.53-6.81,16.85,16.85,0,0,0-10.63-9.38,21.4,21.4,0,0,0-5.95-.77H425.85a3.79,3.79,0,0,0-3.93,3.72c0,.32-.05.65,0,1v48.23a1.29,1.29,0,0,0,1.33,1.31h9.14a1.32,1.32,0,0,0,1.14-.7,2,2,0,0,0,.15-.93ZM186.52,169h20.32c10,.35,18.25-6.62,18.58-17a13.89,13.89,0,0,0-.18-3.12c-1.78-8.52-8.51-14.38-17.09-14.38H194.46v-9.67h23.38a1.32,1.32,0,0,0,1.39-1.47v-6.89c0-1-.33-1.73-1.39-1.71h-31a3.77,3.77,0,0,0-4.11,3.83v46.62a3.8,3.8,0,0,0,3.83,3.82Zm92.82-49.08-.7,11.77c-.23,4-.49,7.48-.76,10.45-.43,4.89-.92,16.64-7.27,16.64h-.25a1.32,1.32,0,0,0-1.3,1.27v7.55a1.31,1.31,0,0,0,1.32,1.4h.56c4.78,0,9-.53,12.59-6a24,24,0,0,0,2.84-5.82,45,45,0,0,0,1.7-7.33q.62-4,1-8.91c.26-3.24.52-6.76.77-10.58l.31-5.42h15.1v42.74a1.32,1.32,0,0,0,1.39,1.31h9a1.32,1.32,0,0,0,1.4-1.4v-49a3.93,3.93,0,0,0-4.09-3.83h-29.7a3.86,3.86,0,0,0-3.73,3.66C279.48,118.81,279.37,119.31,279.34,119.87Z" transform="translate(-72.56 -114.58)"/><path class="cls-3" d="M199.84,187.39l-3.51,5.92-6.67,10.81c-.24.37-.45.66-.63.89a2.62,2.62,0,0,1-.59.53,1.93,1.93,0,0,1-.73.26,7.21,7.21,0,0,1-1,.06h-1.58a2.39,2.39,0,0,1-2.05-.73,3.44,3.44,0,0,1-.51-2V179c0-.5.27-.75.83-.75h4.22c.37,0,.6.05.69.16a.92.92,0,0,1,.14.59V196.7h.23l3.36-5.52,6.82-11.2c.24-.37.45-.67.63-.91a2.32,2.32,0,0,1,.59-.55,1.89,1.89,0,0,1,.71-.26,6.9,6.9,0,0,1,1-.06h1.62a2.68,2.68,0,0,1,2,.61A3.23,3.23,0,0,1,206,181v24.15c0,.5-.27.75-.83.75H200.9a1.11,1.11,0,0,1-.71-.16.87.87,0,0,1-.16-.59V187.39Zm17.35,17.68c0,.34-.05.56-.17.65a1.32,1.32,0,0,1-.73.14h-3.95c-.58,0-.87-.27-.87-.79V185.89q0-.75.87-.75h3.95a1.32,1.32,0,0,1,.73.14c.12.09.17.3.17.61v6.75h7.38v-6.75c0-.5.29-.75.88-.75h4a1.19,1.19,0,0,1,.71.14.81.81,0,0,1,.16.61v19.18c0,.34,0,.56-.16.65a1.19,1.19,0,0,1-.71.14h-4c-.59,0-.88-.27-.88-.79v-7.93h-7.38v7.93Zm28.13-15.27v15.27c0,.34-.06.56-.18.65a1.29,1.29,0,0,1-.73.14h-3.9c-.61,0-.91-.27-.91-.79V189.8H234c-.53,0-.79-.29-.79-.87v-2.88a1.32,1.32,0,0,1,.14-.73c.09-.12.31-.18.65-.18h17a.82.82,0,0,1,.63.18,1.13,1.13,0,0,1,.16.73v2.88c0,.58-.26.87-.79.87Zm17.28-5.17q4.62,0,6.92,2.31a8.94,8.94,0,0,1,2.31,6.61,3.82,3.82,0,0,1-.79,2.8,3,3,0,0,1-2.17.75h-10.1a5.56,5.56,0,0,0,.42,2.09,3.6,3.6,0,0,0,1,1.34,3.7,3.7,0,0,0,1.48.71,8.24,8.24,0,0,0,1.84.2,10,10,0,0,0,2.33-.28,13.18,13.18,0,0,0,2.2-.71,1.31,1.31,0,0,1,.66-.1.71.71,0,0,1,.33.38l1.26,2.84a.62.62,0,0,1,.06.55,1,1,0,0,1-.41.39,10,10,0,0,1-3.39,1.37,17.65,17.65,0,0,1-3.59.41c-3.45,0-6-.86-7.66-2.56s-2.48-4.42-2.48-8.13a14.42,14.42,0,0,1,.69-4.64,9.89,9.89,0,0,1,2-3.45,8.25,8.25,0,0,1,3.08-2.15,10.73,10.73,0,0,1,4-.73Zm.12,4.74a3.38,3.38,0,0,0-2.64,1.14,4.89,4.89,0,0,0-1.19,2.92h7.38a6.93,6.93,0,0,0-.18-1.62,3.49,3.49,0,0,0-.57-1.28,2.68,2.68,0,0,0-1.07-.85,4.06,4.06,0,0,0-1.73-.31Zm19,23.86c0,.29,0,.48-.13.55a1.26,1.26,0,0,1-.69.12h-4.07a1.25,1.25,0,0,1-.63-.12c-.13-.07-.2-.26-.2-.55V187.51a1.48,1.48,0,0,1,.14-.69,1.54,1.54,0,0,1,.65-.53,15.54,15.54,0,0,1,4.24-1.22,29.65,29.65,0,0,1,4.48-.36,11.58,11.58,0,0,1,4.72.85,8,8,0,0,1,3.07,2.29,8.8,8.8,0,0,1,1.68,3.41,16.77,16.77,0,0,1,.51,4.22,15.15,15.15,0,0,1-.55,4.16,9.84,9.84,0,0,1-1.7,3.41,8.07,8.07,0,0,1-2.91,2.31,9.39,9.39,0,0,1-4.14.85,21.36,21.36,0,0,1-2.19-.1,19.78,19.78,0,0,1-2.28-.37v7.49Zm7.78-17.87a10,10,0,0,0-.32-2.72,4.48,4.48,0,0,0-.93-1.78,3.4,3.4,0,0,0-1.51-.94,6.6,6.6,0,0,0-2-.28,11.46,11.46,0,0,0-1.44.12,9.85,9.85,0,0,0-1.57.32v10.77a11.91,11.91,0,0,0,1.84.35c.55.05,1,.08,1.46.08a4.24,4.24,0,0,0,3.23-1.34c.83-.9,1.25-2.42,1.25-4.58Zm16.05,9.71c0,.34-.06.56-.18.65a1.32,1.32,0,0,1-.73.14h-3.94c-.58,0-.87-.27-.87-.79V185.89q0-.75.87-.75h3.94a1.32,1.32,0,0,1,.73.14.76.76,0,0,1,.18.61v6.75h7.38v-6.75q0-.75.87-.75h4a1.23,1.23,0,0,1,.72.14.81.81,0,0,1,.16.61v19.18c0,.34-.05.56-.16.65a1.23,1.23,0,0,1-.72.14h-4c-.58,0-.87-.27-.87-.79v-7.93h-7.38v7.93Zm27.18-20.44q4.62,0,6.93,2.31a9,9,0,0,1,2.3,6.61,3.82,3.82,0,0,1-.79,2.8,3,3,0,0,1-2.17.75h-10.1a5.56,5.56,0,0,0,.42,2.09,3.52,3.52,0,0,0,1,1.34,3.6,3.6,0,0,0,1.47.71,8.24,8.24,0,0,0,1.84.2,10,10,0,0,0,2.33-.28,13.29,13.29,0,0,0,2.21-.71,1.26,1.26,0,0,1,.65-.1.71.71,0,0,1,.33.38l1.26,2.84a.62.62,0,0,1,.06.55,1,1,0,0,1-.41.39,9.9,9.9,0,0,1-3.39,1.37,17.65,17.65,0,0,1-3.59.41c-3.45,0-6-.86-7.66-2.56S323,199.31,323,195.6a14.42,14.42,0,0,1,.69-4.64,9.89,9.89,0,0,1,2-3.45,8.33,8.33,0,0,1,3.08-2.15,10.73,10.73,0,0,1,4-.73Zm.12,4.74a3.38,3.38,0,0,0-2.64,1.14,4.89,4.89,0,0,0-1.19,2.92h7.38a6.93,6.93,0,0,0-.18-1.62,3.49,3.49,0,0,0-.57-1.28,2.72,2.72,0,0,0-1.06-.85,4.14,4.14,0,0,0-1.74-.31Zm23.24.43v15.27c0,.34-.06.56-.18.65a1.32,1.32,0,0,1-.73.14h-3.91c-.6,0-.9-.27-.9-.79V189.8h-5.61c-.52,0-.79-.29-.79-.87v-2.88a1.32,1.32,0,0,1,.14-.73c.09-.12.31-.18.65-.18h17.05a.85.85,0,0,1,.63.18,1.22,1.22,0,0,1,.15.73v2.88q0,.87-.78.87Zm32.54,15.31a.82.82,0,0,1-.16.59,1.09,1.09,0,0,1-.71.16h-4.3c-.55,0-.83-.25-.83-.75V183.45H372v21.66a.87.87,0,0,1-.15.59,1.13,1.13,0,0,1-.71.16h-4.34c-.56,0-.83-.25-.83-.75V180.88a3,3,0,0,1,.57-2,2.5,2.5,0,0,1,2-.65h17.64a2.51,2.51,0,0,1,2,.65,3.1,3.1,0,0,1,.55,2v24.23Zm23.08-1.82a2.48,2.48,0,0,1-.14.87,1.44,1.44,0,0,1-.69.67,10.46,10.46,0,0,1-1.95.71,18.5,18.5,0,0,1-2.12.43q-1.08.17-2.19.24c-.73,0-1.43.08-2.08.08a16.19,16.19,0,0,1-4.43-.51,7.91,7.91,0,0,1-2.82-1.4,5,5,0,0,1-1.49-2.09,8,8,0,0,1,.08-5.41,6,6,0,0,1,1.54-2.23,7.2,7.2,0,0,1,2.58-1.48,11.59,11.59,0,0,1,3.69-.53H406V192a4.74,4.74,0,0,0-.12-1.07,1.79,1.79,0,0,0-.49-.88,2.78,2.78,0,0,0-1.05-.62,5.71,5.71,0,0,0-1.77-.23q-.6,0-1.35.06l-1.49.15c-.5.07-1,.15-1.46.24a12.65,12.65,0,0,0-1.27.3,1,1,0,0,1-.71,0,.73.73,0,0,1-.27-.52l-.63-2.76a.85.85,0,0,1,0-.61.67.67,0,0,1,.41-.29,18.83,18.83,0,0,1,3.73-.91,26.86,26.86,0,0,1,3.88-.28q4.29,0,6.29,1.84a7,7,0,0,1,2,5.42v11.44ZM406,196.47h-3.12a8.26,8.26,0,0,0-1.18.08,3,3,0,0,0-1.16.37,2.41,2.41,0,0,0-.89.85,2.73,2.73,0,0,0-.36,1.5,2.06,2.06,0,0,0,.93,1.93,4.85,4.85,0,0,0,2.5.55c.16,0,.37,0,.64,0s.54,0,.84-.08.62-.09.93-.15a5,5,0,0,0,.87-.26v-4.77Zm16.61,16.76c0,.29-.05.48-.14.55a1.2,1.2,0,0,1-.68.12h-4.08a1.28,1.28,0,0,1-.63-.12c-.13-.07-.19-.26-.19-.55V187.51a1.49,1.49,0,0,1,.13-.69,1.58,1.58,0,0,1,.66-.53,15.43,15.43,0,0,1,4.24-1.22,29.43,29.43,0,0,1,4.47-.36,11.58,11.58,0,0,1,4.72.85,8.11,8.11,0,0,1,3.08,2.29,8.92,8.92,0,0,1,1.67,3.41,16.77,16.77,0,0,1,.51,4.22,15.15,15.15,0,0,1-.55,4.16,9.84,9.84,0,0,1-1.7,3.41,8,8,0,0,1-2.91,2.31,9.34,9.34,0,0,1-4.13.85,21.43,21.43,0,0,1-2.2-.1,19.3,19.3,0,0,1-2.27-.37v7.49Zm7.77-17.87a10,10,0,0,0-.32-2.72,4.36,4.36,0,0,0-.93-1.78,3.34,3.34,0,0,0-1.51-.94,6.53,6.53,0,0,0-2-.28,11.45,11.45,0,0,0-1.45.12,9.49,9.49,0,0,0-1.56.32v10.77a11.69,11.69,0,0,0,1.84.35c.54.05,1,.08,1.45.08a4.24,4.24,0,0,0,3.23-1.34c.83-.9,1.25-2.42,1.25-4.58Zm29.47,0c0,3.47-.83,6.16-2.49,8s-4.18,2.84-7.57,2.84-5.92-.95-7.5-2.84-2.36-4.55-2.36-8a14.18,14.18,0,0,1,.69-4.56,9.3,9.3,0,0,1,2-3.41,8.63,8.63,0,0,1,3.11-2.13,11,11,0,0,1,4.17-.75c3.31,0,5.8,1,7.47,2.86s2.51,4.55,2.51,7.91Zm-6,.12a14.21,14.21,0,0,0-.2-2.45,5.48,5.48,0,0,0-.67-1.89,3.45,3.45,0,0,0-1.22-1.24,3.55,3.55,0,0,0-1.85-.46,3.41,3.41,0,0,0-3.1,1.6,8.08,8.08,0,0,0-1,4.32,8.83,8.83,0,0,0,.93,4.5,3.31,3.31,0,0,0,3.06,1.54,3.55,3.55,0,0,0,1.87-.46,3.62,3.62,0,0,0,1.26-1.26,5.64,5.64,0,0,0,.71-1.87,11.32,11.32,0,0,0,.22-2.33Zm26.31-10.38a2.44,2.44,0,0,1,1.88.58,2.76,2.76,0,0,1,.49,1.83v17.56a.76.76,0,0,1-.18.61,1.32,1.32,0,0,1-.73.14h-4a1.06,1.06,0,0,1-.73-.18.84.84,0,0,1-.18-.61V189.8h-4.85l-.12,2q-.19,3.43-.51,5.92a15.89,15.89,0,0,1-1.07,4.24,7.25,7.25,0,0,1-2.13,2.86,10.93,10.93,0,0,1-3.67,1.81c-.37.14-.63.16-.79.06a1,1,0,0,1-.39-.53l-1.07-2.68a1.34,1.34,0,0,1-.13-.73c0-.15.23-.31.57-.49a6.53,6.53,0,0,0,1.71-1.07,4.21,4.21,0,0,0,1.07-1.7,13.29,13.29,0,0,0,.65-2.94c.16-1.22.3-2.83.43-4.83l.28-4.3a2.7,2.7,0,0,1,.61-1.81,2.64,2.64,0,0,1,1.84-.52Zm10,20.72a2.49,2.49,0,0,1-2-.62,2.67,2.67,0,0,1-.47-1.67V185.89q0-.75.87-.75h3.94a1.32,1.32,0,0,1,.73.14.76.76,0,0,1,.18.61v5.72h4.89a10.64,10.64,0,0,1,4.56.81,6.85,6.85,0,0,1,2.54,2,5.53,5.53,0,0,1,1.09,2.34,12.13,12.13,0,0,1,.21,2,6.7,6.7,0,0,1-2.23,5.08,7.46,7.46,0,0,1-2.46,1.5,8.39,8.39,0,0,1-3.08.56Zm10.65-7.22a2.73,2.73,0,0,0-.69-1.88,2.65,2.65,0,0,0-2.07-.77h-4.65v5.37H498a3,3,0,0,0,1.38-.28,2.34,2.34,0,0,0,.87-.69,2.39,2.39,0,0,0,.44-.89A3.44,3.44,0,0,0,500.83,198.64Z" transform="translate(-72.56 -114.58)"/></svg>