<?xml version="1.0" encoding="UTF-8" standalone="no"?>
<svg
   xmlns:svg="http://www.w3.org/2000/svg"
   xmlns="http://www.w3.org/2000/svg"
   xmlns:xlink="http://www.w3.org/1999/xlink"
   width="132.29167mm"
   height="44.78149mm"
   viewBox="0 0 132.29167 44.78149"
   version="1.1"
   id="svg8">
  <defs
     id="defs2">
    <rect
       id="SVGID_1_"
       width="1920"
       height="1080"
       x="0"
       y="0" />
    <path
       id="SVGID_3_"
       d="m 699,451.65 63.41,77.52 21.18,-25.87 -42.25,-51.65 z m 63.51,0 42.24,51.62 c 0,0 14.83,-18.12 14.86,-18.16 3.71,-4.58 3.59,-11.06 -0.06,-15.5 l -11,-13.44 c -2.33,-2.85 -5.83,-4.52 -9.51,-4.52 z" />
    <path
       id="SVGID_6_"
       d="m 765.97,628.35 v 0 h 36.52 c 3.69,0 7.18,-1.66 9.51,-4.5 l 60.51,-73.93 c 3.71,-4.53 3.71,-11.04 0,-15.57 l -14.8,-18.09 z" />
    <path
       id="SVGID_9_"
       d="m 819.6,485.1 c -0.02,0.04 -14.86,18.16 -14.86,18.16 l -0.01,0.01 -102.36,125.08 h 42.37 l 95.99,-117.28 c 3.71,-4.53 3.71,-11.04 0,-15.57 l -21.18,-25.9 c 3.64,4.45 3.77,10.93 0.05,15.5" />
  </defs>
  <g
     id="layer1"
     style="display:inline"
     transform="matrix(0.95785441,0,0,0.95785441,-33.81585,-110.65341)">
    <g
       id="g125"
       transform="matrix(0.26458333,0,0,0.26458333,-149.64,-3.9768999)">
      <g
         id="g26">
        <defs
           id="defs13">
          <rect
             id="rect85"
             width="1920"
             height="1080"
             x="0"
             y="0" />
        </defs>
        <clipPath
           id="SVGID_2_">
          <use
             xlink:href="#SVGID_1_"
             style="overflow:visible"
             id="use15"
             x="0"
             y="0"
             width="100%"
             height="100%" />
        </clipPath>
        <path
           class="st0"
           d="m 968.51,518.63 c 7.06,8.56 9.65,18.61 7.74,30.29 H 922.2 c 2.58,8.55 9.78,14.12 19.15,14.12 8.01,0 13.72,-3.26 17.39,-9.78 l 15.07,6.79 c -6.38,11.41 -18.33,18.74 -33,18.74 -10.73,0 -19.56,-3.53 -26.76,-10.46 -7.2,-6.93 -10.73,-15.62 -10.73,-25.94 0,-10.32 3.53,-19.01 10.59,-25.94 7.06,-6.93 15.76,-10.46 26.22,-10.46 11.81,0.01 21.18,4.22 28.38,12.64 m -46.04,16.3 h 35.45 c -2.58,-8.01 -9.23,-13.17 -17.79,-13.17 -8.15,-0.01 -15.08,5.15 -17.66,13.17"
           clip-path="url(#SVGID_2_)"
           id="path18" />
        <path
           class="st0"
           d="m 1050.82,516.45 c 6.39,6.93 9.64,15.62 9.64,25.94 0,10.32 -3.26,19.02 -9.64,25.94 -6.38,6.93 -14.4,10.46 -24.04,10.46 -8.97,0 -16.44,-3.26 -22.28,-9.64 v 35.45 h -18.34 v -97.25 h 18.34 v 8.28 c 5.84,-6.38 13.31,-9.64 22.28,-9.64 9.64,0.01 17.65,3.54 24.04,10.46 m -27.85,45.64 c 5.3,0 9.64,-1.9 13.18,-5.7 3.53,-3.67 5.3,-8.42 5.3,-13.99 0,-5.57 -1.77,-10.32 -5.3,-13.99 -3.53,-3.67 -7.88,-5.57 -13.18,-5.57 -5.3,0 -9.65,1.9 -13.18,5.57 -3.53,3.8 -5.3,8.42 -5.3,13.99 0,5.57 1.77,10.32 5.3,13.99 3.54,3.8 7.89,5.7 13.18,5.7"
           clip-path="url(#SVGID_2_)"
           id="path20" />
        <polygon
           class="st0"
           points="1069.69,507.35 1088.03,507.35 1088.03,550.68 1121.44,507.35 1139.24,507.35 1139.24,577.44 1120.9,577.44 1120.9,534.11 1087.49,577.44 1069.69,577.44 "
           clip-path="url(#SVGID_2_)"
           id="polygon22" />
        <polygon
           class="st0"
           points="1153.9,507.35 1221,507.35 1221,577.44 1202.66,577.44 1202.66,523.52 1172.24,523.52 1172.24,577.44 1153.9,577.44 "
           clip-path="url(#SVGID_2_)"
           id="polygon24" />
      </g>
      <g
         id="g41">
        <defs
           id="defs29">
          <path
             id="path95"
             d="m 699,451.65 63.41,77.52 21.18,-25.87 -42.25,-51.65 z m 63.51,0 42.24,51.62 c 0,0 14.83,-18.12 14.86,-18.16 3.71,-4.58 3.59,-11.06 -0.06,-15.5 l -11,-13.44 c -2.33,-2.85 -5.83,-4.52 -9.51,-4.52 z" />
        </defs>
        <clipPath
           id="SVGID_4_">
          <use
             xlink:href="#SVGID_3_"
             style="overflow:visible"
             id="use31"
             x="0"
             y="0"
             width="100%"
             height="100%" />
        </clipPath>
        <linearGradient
           id="SVGID_5_"
           gradientUnits="userSpaceOnUse"
           x1="0"
           y1="1080"
           x2="1"
           y2="1080"
           gradientTransform="matrix(85.1402,87.284,-87.284,85.1402,94992.727,-91496.969)">
          <stop
             offset="0"
             style="stop-color:#F6B960"
             id="stop34" />
          <stop
             offset="1"
             style="stop-color:#E7362F"
             id="stop36" />
        </linearGradient>
        <polygon
           class="st1"
           points="862.06,491.37 762.7,389.51 660.25,489.44 759.61,591.3 "
           clip-path="url(#SVGID_4_)"
           id="polygon39"
           style="fill:url(#SVGID_5_)" />
      </g>
      <g
         id="g56">
        <defs
           id="defs44">
          <path
             id="path105"
             d="m 765.97,628.35 v 0 h 36.52 c 3.69,0 7.18,-1.66 9.51,-4.5 l 60.51,-73.93 c 3.71,-4.53 3.71,-11.04 0,-15.57 l -14.8,-18.09 z" />
        </defs>
        <clipPath
           id="SVGID_7_">
          <use
             xlink:href="#SVGID_6_"
             style="overflow:visible"
             id="use46"
             x="0"
             y="0"
             width="100%"
             height="100%" />
        </clipPath>
        <linearGradient
           id="SVGID_8_"
           gradientUnits="userSpaceOnUse"
           x1="0"
           y1="1080"
           x2="1"
           y2="1080"
           gradientTransform="matrix(-84.2595,111.2225,-111.2225,-84.2595,120978.67,91523.344)">
          <stop
             offset="0"
             style="stop-color:#F6B960"
             id="stop49" />
          <stop
             offset="1"
             style="stop-color:#E7362F"
             id="stop51" />
        </linearGradient>
        <polygon
           class="st2"
           points="836.02,681.42 930.18,557.13 806.18,463.19 712.02,587.48 "
           clip-path="url(#SVGID_7_)"
           id="polygon54"
           style="fill:url(#SVGID_8_)" />
      </g>
      <g
         id="g71">
        <defs
           id="defs59">
          <path
             id="path115"
             d="m 819.6,485.1 c -0.02,0.04 -14.86,18.16 -14.86,18.16 l -0.01,0.01 -102.36,125.08 h 42.37 l 95.99,-117.28 c 3.71,-4.53 3.71,-11.04 0,-15.57 l -21.18,-25.9 c 3.64,4.45 3.77,10.93 0.05,15.5" />
        </defs>
        <clipPath
           id="SVGID_10_">
          <use
             xlink:href="#SVGID_9_"
             style="overflow:visible"
             id="use61"
             x="0"
             y="0"
             width="100%"
             height="100%" />
        </clipPath>
        <linearGradient
           id="SVGID_11_"
           gradientUnits="userSpaceOnUse"
           x1="0"
           y1="1080"
           x2="1"
           y2="1080"
           gradientTransform="matrix(-119.1388,157.2633,-157.2633,-119.1388,170672.75,129146.28)">
          <stop
             offset="0"
             style="stop-color:#F6B960"
             id="stop64" />
          <stop
             offset="1"
             style="stop-color:#E7362F"
             id="stop66" />
        </linearGradient>
        <polygon
           class="st3"
           points="792.63,696.74 920.85,527.49 754.17,401.22 625.96,570.47 "
           clip-path="url(#SVGID_10_)"
           id="polygon69"
           style="fill:url(#SVGID_11_)" />
      </g>
    </g>
  </g>
  <style
     type="text/css"
     id="style10">
	.st0{clip-path:url(#SVGID_2_);fill:#1E4078;}
	.st1{clip-path:url(#SVGID_4_);fill:url(#SVGID_5_);}
	.st2{clip-path:url(#SVGID_7_);fill:url(#SVGID_8_);}
	.st3{clip-path:url(#SVGID_10_);fill:url(#SVGID_11_);}
</style>
</svg>
