<svg id="Layer_1" data-name="Layer 1" xmlns="http://www.w3.org/2000/svg" viewBox="0 0 716.43 147.93"><defs><style>.cls-1{fill:none;}.cls-2{fill:#ff5f00;}.cls-3{fill:#eb001b;}.cls-4{fill:#f79e1b;}</style></defs><title>mc_idcheck_ltd_rgb_pos</title><rect class="cls-1" width="716.43" height="147.93"/><path fill="#fff" d="M511,318H508V283H511Zm23.25-35a23.75,23.75,0,0,1,7.88,1.23,16.76,16.76,0,0,1,6,3.5,15.34,15.34,0,0,1,3.77,5.51,20.56,20.56,0,0,1,0,14.53,15.34,15.34,0,0,1-3.77,5.51,16.75,16.75,0,0,1-6,3.5,23.75,23.75,0,0,1-7.87,1.22H521.5V283Zm-9.72,2.9v29.2h9.72a20.16,20.16,0,0,0,6.75-1,13.67,13.67,0,0,0,4.92-2.94,12.24,12.24,0,0,0,3-4.6,18.23,18.23,0,0,0,0-12,12.36,12.36,0,0,0-3-4.61,13.45,13.45,0,0,0-4.92-2.94,20.39,20.39,0,0,0-6.75-1Zm66.1-3.3a18.7,18.7,0,0,1,4.35.5,17.59,17.59,0,0,1,3.94,1.44,15.72,15.72,0,0,1,3.33,2.26,13.86,13.86,0,0,1,2.54,3l-2.55,1.7a12.34,12.34,0,0,0-2.14-2.48,13.43,13.43,0,0,0-2.72-1.87,14,14,0,0,0-3.2-1.19,15.06,15.06,0,0,0-3.54-.41,15.51,15.51,0,0,0-5.81,1.08,13.85,13.85,0,0,0-4.67,3,14.25,14.25,0,0,0-3.12,4.73,16.92,16.92,0,0,0,0,12.2,14.24,14.24,0,0,0,3.13,4.73,13.85,13.85,0,0,0,4.67,3,15.5,15.5,0,0,0,5.81,1.08,15.34,15.34,0,0,0,3.52-.4,13.6,13.6,0,0,0,3.19-1.17,13.4,13.4,0,0,0,2.73-1.87,12,12,0,0,0,2.14-2.5l2.5,1.83a14.89,14.89,0,0,1-2.59,3,16.16,16.16,0,0,1-3.3,2.22,17.1,17.1,0,0,1-3.89,1.41,19.53,19.53,0,0,1-11.41-.84,17.13,17.13,0,0,1-5.69-3.69,16.9,16.9,0,0,1-3.76-5.65,19.87,19.87,0,0,1,0-14.46,16.87,16.87,0,0,1,3.76-5.66,17.14,17.14,0,0,1,5.69-3.69A18.86,18.86,0,0,1,590.66,282.58Zm24.53,15.95a9,9,0,0,1,1.64-2,8.74,8.74,0,0,1,2-1.39,10.19,10.19,0,0,1,2.3-.8,11.21,11.21,0,0,1,2.4-.26,11.73,11.73,0,0,1,4,.66,9.07,9.07,0,0,1,3.14,1.89,8.27,8.27,0,0,1,2,3,10.43,10.43,0,0,1,.71,3.94V318h-2.85V304.43a9.63,9.63,0,0,0-.5-3.2,6.39,6.39,0,0,0-1.48-2.41,6.47,6.47,0,0,0-2.37-1.51,9.07,9.07,0,0,0-3.2-.53,8.4,8.4,0,0,0-3.09.56,7.38,7.38,0,0,0-2.5,1.6,7.55,7.55,0,0,0-1.67,2.48,8,8,0,0,0-.61,3.16V318h-2.85V282h2.85Zm36.87-4.45a10.7,10.7,0,0,1,4.36.89,10.34,10.34,0,0,1,3.47,2.48,11.75,11.75,0,0,1,2.31,3.8,13.75,13.75,0,0,1,.88,4.84q0,.33,0,.61t0,.56H643.3a10.12,10.12,0,0,0,.91,3.65,8.63,8.63,0,0,0,2,2.71,8.4,8.4,0,0,0,2.81,1.69,9.86,9.86,0,0,0,3.39.58,10.45,10.45,0,0,0,4.42-.9,12.38,12.38,0,0,0,3.53-2.45l1.53,2a14,14,0,0,1-2.29,1.88,12.19,12.19,0,0,1-2.37,1.2,11.78,11.78,0,0,1-2.46.63,18.28,18.28,0,0,1-2.53.17,12.45,12.45,0,0,1-4.75-.89,11,11,0,0,1-3.75-2.49,11.24,11.24,0,0,1-2.45-3.83,13.36,13.36,0,0,1-.87-4.92,13.14,13.14,0,0,1,.89-4.89,11.61,11.61,0,0,1,2.45-3.85,11.06,11.06,0,0,1,3.7-2.51A11.76,11.76,0,0,1,652.05,294.08Zm0,2.52a8.56,8.56,0,0,0-3.29.61,8.24,8.24,0,0,0-2.61,1.7,8.84,8.84,0,0,0-1.84,2.59,10.28,10.28,0,0,0-.91,3.3h16.83a10.19,10.19,0,0,0-.83-3.34,8.42,8.42,0,0,0-1.76-2.59,7.84,7.84,0,0,0-5.59-2.27Zm28.47-2.52a12.46,12.46,0,0,1,4.86.94,10.41,10.41,0,0,1,3.81,2.71l-1.85,1.92a10.25,10.25,0,0,0-3.09-2.14,9.28,9.28,0,0,0-3.81-.76,9,9,0,0,0-3.59.71,8.82,8.82,0,0,0-2.89,2,9,9,0,0,0-1.91,3,10.78,10.78,0,0,0,0,7.57,8.75,8.75,0,0,0,4.8,5,9,9,0,0,0,3.59.71,9.24,9.24,0,0,0,3.86-.8,10.76,10.76,0,0,0,3.11-2.12l1.78,1.95a10.66,10.66,0,0,1-3.83,2.71,12.37,12.37,0,0,1-4.85.94,12.49,12.49,0,0,1-4.86-.92,11.35,11.35,0,0,1-6.3-6.39,13.52,13.52,0,0,1,0-9.64,11.33,11.33,0,0,1,6.3-6.4A12.49,12.49,0,0,1,680.48,294.08Zm18.25,10.3h3.82l9.9-9.92h3.6l-11.2,11.1L716.25,318h-3.62l-10.08-11h-3.82v11h-2.85V282h2.85ZM254.18,318.13v-15c0-5.66-3.61-9.47-9.42-9.52a9.27,9.27,0,0,0-8.41,4.26,8.79,8.79,0,0,0-7.91-4.26,7.92,7.92,0,0,0-7,3.56v-3h-5.21v23.94h5.26V304.86c0-4.16,2.3-6.36,5.86-6.36s5.21,2.25,5.21,6.31v13.32h5.26V304.86c0-4.16,2.4-6.36,5.86-6.36s5.26,2.25,5.26,6.31v13.32ZM332,294.19H323.5v-7.26h-5.26v7.26h-4.86v4.76h4.86v10.92c0,5.56,2.15,8.87,8.31,8.87a12.24,12.24,0,0,0,6.51-1.85l-1.5-4.46a9.62,9.62,0,0,1-4.61,1.35c-2.6,0-3.46-1.6-3.46-4V298.95H332Zm44.43-.6a7.06,7.06,0,0,0-6.31,3.51v-2.91H365v23.94h5.21V304.71c0-4,1.7-6.16,5.11-6.16a8.49,8.49,0,0,1,3.26.6l1.6-4.91a11.13,11.13,0,0,0-3.71-.65Zm-67.17,2.5a17.9,17.9,0,0,0-9.77-2.5c-6.06,0-10,2.9-10,7.66,0,3.91,2.9,6.31,8.26,7.06l2.45.35c2.85.4,4.21,1.15,4.21,2.5,0,1.85-1.9,2.9-5.46,2.9a12.76,12.76,0,0,1-8-2.5l-2.45,4.06A17.27,17.27,0,0,0,299,318.73c6.91,0,10.92-3.26,10.92-7.81,0-4.21-3.16-6.41-8.36-7.16l-2.45-.35c-2.25-.3-4.06-.75-4.06-2.35,0-1.75,1.7-2.81,4.56-2.81A15.43,15.43,0,0,1,307,300.3Zm139.54-2.5a7.06,7.06,0,0,0-6.31,3.51v-2.91h-5.16v23.94h5.21V304.71c0-4,1.7-6.16,5.11-6.16a8.49,8.49,0,0,1,3.26.6l1.6-4.91a11.13,11.13,0,0,0-3.71-.65ZM381.7,306.16c0,7.26,5.06,12.57,12.77,12.57a12.54,12.54,0,0,0,8.61-2.86l-2.5-4.21a10.52,10.52,0,0,1-6.26,2.15c-4.16,0-7.21-3.06-7.21-7.66s3.06-7.61,7.21-7.66a10.52,10.52,0,0,1,6.26,2.15l2.5-4.21a12.54,12.54,0,0,0-8.61-2.86c-7.71,0-12.77,5.31-12.77,12.57Zm48.78,0v-12h-5.21v2.91a9.08,9.08,0,0,0-7.56-3.51c-6.71,0-12,5.26-12,12.57s5.26,12.57,12,12.57a9.08,9.08,0,0,0,7.56-3.51v2.9h5.21Zm-19.38,0c0-4.21,2.75-7.66,7.26-7.66,4.31,0,7.21,3.31,7.21,7.66s-2.91,7.66-7.21,7.66c-4.51,0-7.26-3.46-7.26-7.66Zm-62.86-12.57c-7,0-11.92,5.11-11.92,12.57,0,7.61,5.11,12.57,12.27,12.57a14.55,14.55,0,0,0,9.82-3.36l-2.55-3.86a11.41,11.41,0,0,1-7,2.5c-3.36,0-6.41-1.55-7.16-5.86h17.78c.05-.65.1-1.3.1-2,0-7.46-4.66-12.57-11.37-12.57Zm-.1,4.66c3.36,0,5.51,2.1,6.06,5.81H341.78c.55-3.46,2.65-5.81,6.36-5.81Zm130.68,7.91V284.57h-5.21v12.52a9.08,9.08,0,0,0-7.56-3.51c-6.71,0-12,5.26-12,12.57s5.26,12.57,12,12.57a9.08,9.08,0,0,0,7.56-3.51v2.9h5.21Zm6.09,9.76a1.53,1.53,0,0,1,.6.12,1.57,1.57,0,0,1,.49.33,1.53,1.53,0,0,1,.33.48,1.49,1.49,0,0,1,0,1.18,1.54,1.54,0,0,1-.33.48,1.6,1.6,0,0,1-.49.33,1.5,1.5,0,0,1-.6.12,1.55,1.55,0,0,1-1.44-.93,1.5,1.5,0,0,1,0-1.18,1.52,1.52,0,0,1,.82-.81A1.57,1.57,0,0,1,484.9,315.92Zm0,2.7a1.13,1.13,0,0,0,.46-.09,1.21,1.21,0,0,0,.37-.25,1.19,1.19,0,0,0,0-1.68,1.18,1.18,0,0,0-.37-.25,1.15,1.15,0,0,0-.46-.09,1.19,1.19,0,0,0-.47.09,1.19,1.19,0,0,0-.38,1.93,1.19,1.19,0,0,0,.38.25A1.18,1.18,0,0,0,484.9,318.62Zm.09-1.9a.64.64,0,0,1,.42.12.4.4,0,0,1,.15.33.38.38,0,0,1-.12.29.56.56,0,0,1-.33.14l.46.53h-.36l-.43-.53h-.14v.53h-.3v-1.41Zm-.35.26v.38H485a.34.34,0,0,0,.19,0,.16.16,0,0,0,.07-.14.16.16,0,0,0-.07-.14.34.34,0,0,0-.19,0Zm-25.21-10.83c0-4.21,2.75-7.66,7.26-7.66,4.31,0,7.21,3.31,7.21,7.66s-2.9,7.66-7.21,7.66c-4.51,0-7.26-3.46-7.26-7.66Zm-175.9,0v-12h-5.21v2.91a9.08,9.08,0,0,0-7.56-3.51c-6.71,0-12,5.26-12,12.57s5.26,12.57,12,12.57a9.08,9.08,0,0,0,7.56-3.51v2.9h5.21Zm-19.38,0c0-4.21,2.75-7.66,7.26-7.66,4.31,0,7.21,3.31,7.21,7.66s-2.9,7.66-7.21,7.66C266.9,313.82,264.14,310.37,264.14,306.16ZM719.86,316.8h-.45V318h-.22V316.8h-.45v-.21h1.12Zm1.72,1.18h-.22v-1.14l-.41,1h-.24l-.41-1V318h-.22v-1.39h.34l.4,1,.4-1h.34Z" transform="translate(-37.79 -232.03)"/><rect class="cls-2" x="80.46" y="45.67" width="31.5" height="56.61"/><path id="_Path_" data-name="&lt;Path&gt;" class="cls-3" d="M120.25,306A35.94,35.94,0,0,1,134,277.7a36,36,0,1,0,0,56.61A35.94,35.94,0,0,1,120.25,306Z" transform="translate(-37.79 -232.03)"/><path class="cls-4" d="M188.81,328.31v-1.16h.47v-.24h-1.19v.24h.47v1.16Zm2.31,0v-1.4h-.36l-.42,1-.42-1h-.36v1.4h.26v-1.05l.39.91h.27l.39-.91v1.06Z" transform="translate(-37.79 -232.03)"/><path class="cls-4" d="M192.24,306A36,36,0,0,1,134,334.31a36,36,0,0,0,0-56.61A36,36,0,0,1,192.24,306Z" transform="translate(-37.79 -232.03)"/></svg>