<?xml version="1.0" encoding="UTF-8"?>
<!DOCTYPE svg PUBLIC "-//W3C//DTD SVG 1.1//EN" "http://www.w3.org/Graphics/SVG/1.1/DTD/svg11.dtd">
<!-- Creator: CorelDRAW 2020 (64-Bit) -->
<svg xmlns="http://www.w3.org/2000/svg" xml:space="preserve" width="37.0838mm" height="12.0226mm" version="1.1" style="shape-rendering:geometricPrecision; text-rendering:geometricPrecision; image-rendering:optimizeQuality; fill-rule:evenodd; clip-rule:evenodd"
viewBox="0 0 3708.38 1202.26"
 xmlns:xlink="http://www.w3.org/1999/xlink"
 xmlns:xodm="../../../www.corel.com/coreldraw/odm/2003">
 <defs>
  <style type="text/css">
   <![CDATA[
    .fil0 {fill:#1A1F71;fill-rule:nonzero}
   ]]>
  </style>
 </defs>
 <g id="Слой_x0020_1">
  <metadata id="CorelCorpID_0Corel-Layer"/>
  <g>
   <path class="fil0" d="M1408.36 23.88l-485.2 1157.57 -316.54 0 -238.65 -923.9c-14.58,-56.96 -27.11,-77.72 -71.2,-101.74 -71.89,-39.12 -190.78,-75.66 -295.44,-98.48l7.21 -33.63 509.55 0.01c64.85,0 123.36,43.24 138.11,118.04l126.1 669.98 311.57 -787.84 314.49 -0.01zm1240.27 779.61c1.2,-305.56 -422.57,-322.38 -419.66,-458.77 0.86,-41.52 40.49,-85.61 126.96,-96.94 42.89,-5.66 161.1,-9.95 295.27,51.81l52.5 -245.51c-72.06,-26.25 -164.71,-51.3 -280.17,-51.3 -295.96,0 -504.24,157.33 -506.13,382.77 -1.89,166.59 148.75,259.58 262.16,315 116.67,56.79 155.78,93.16 155.27,143.77 -0.69,77.72 -92.99,111.86 -179.12,113.24 -150.64,2.4 -237.97,-40.66 -307.62,-73.09l-54.22 253.58c70,32.08 199.02,60.05 333.01,61.42 315.01,0 520.72,-155.44 521.75,-395.98l0 0zm781.5 377.96l276.91 0 -241.74 -1157.57 -255.64 0c-57.48,0 -105.86,33.46 -127.48,84.93l-449.17 1072.65 314.5 -0.01 62.45 -172.94 384.14 0 36.03 172.94zm-334.05 -410.22l157.67 -434.75 90.76 434.75 -248.43 0zm-1259.82 -747.35l-247.57 1157.57 -299.4 0 247.75 -1157.57 299.22 0z"/>
  </g>
 </g>
</svg>
