<svg width="199" height="61" viewBox="0 0 199 61" fill="none" xmlns="http://www.w3.org/2000/svg">
	<path fill-rule="evenodd" clip-rule="evenodd"
		  d="M3.68668 6.49756H50.5018V53.7523H3.68668V6.49756ZM24.6247 41.3007H11.8793V18.961H24.6247V22.8359H16.5725V27.7504H24.063V31.6253H16.5725V37.3903H24.6247V41.3007ZM42.3092 35.0985C42.3092 37.1186 41.5835 38.7016 40.144 39.8712C38.7161 41.0289 36.703 41.6078 34.1399 41.6078C31.7875 41.6078 29.6925 41.1589 27.8784 40.2611V35.8664C29.3765 36.5397 30.6405 37.0123 31.6704 37.284C32.7004 37.5675 33.6484 37.6975 34.5027 37.6975C35.5444 37.6975 36.3285 37.4967 36.8786 37.1068C37.4287 36.7051 37.6979 36.1145 37.6979 35.3348C37.6979 34.8976 37.5808 34.496 37.3468 34.1652C37.101 33.8226 36.7382 33.4918 36.27 33.1728C35.8019 32.8539 34.8421 32.3577 33.4026 31.6607C32.0566 31.0228 31.0384 30.4084 30.3596 29.8178C29.6808 29.2271 29.1424 28.5301 28.7445 27.7504C28.3348 26.9707 28.1359 26.0492 28.1359 24.9978C28.1359 23.0249 28.7913 21.4655 30.1255 20.3432C31.448 19.2091 33.2855 18.642 35.6263 18.642C36.7733 18.642 37.8734 18.7838 38.9268 19.0555C39.9684 19.3272 41.0569 19.7171 42.1921 20.2132L40.6823 23.8991C39.5003 23.4147 38.5288 23.0722 37.7564 22.8831C36.9839 22.6823 36.2232 22.5878 35.4742 22.5878C34.5847 22.5878 33.9058 22.7886 33.426 23.2139C32.9578 23.6274 32.7121 24.1708 32.7121 24.8442C32.7121 25.2695 32.8174 25.6357 33.0047 25.9429C33.2036 26.25 33.5079 26.5454 33.9175 26.8407C34.3389 27.1361 35.3337 27.6559 36.902 28.4001C38.9736 29.4043 40.3897 30.4084 41.1505 31.4126C41.9229 32.4168 42.3092 33.6454 42.3092 35.0985Z"
		  fill="#E8253C" />
	<path fill-rule="evenodd" clip-rule="evenodd"
		  d="M77.912 44.4549H62.2289V16.9526H77.912V21.7254H67.9989V27.774H77.2215V32.5585H67.9989V39.6349H77.912V44.4549ZM81.3061 36.4806V31.7788H91.3128V36.4806H81.3061ZM111.97 36.8232C111.97 39.3159 111.069 41.2652 109.302 42.6946C107.534 44.1241 105.077 44.8447 101.916 44.8447C99.0139 44.8447 96.4391 44.2895 94.2037 43.179V37.7683C96.0412 38.5953 97.5978 39.1742 98.8735 39.5168C100.138 39.8594 101.308 40.0248 102.361 40.0248C103.637 40.0248 104.608 39.7767 105.275 39.2923C105.966 38.8079 106.294 38.0755 106.294 37.1068C106.294 36.5752 106.153 36.0908 105.849 35.6773C105.556 35.252 105.112 34.8504 104.538 34.4605C103.953 34.0707 102.783 33.4445 101.004 32.5939C99.3416 31.8024 98.0893 31.0464 97.2584 30.3139C96.4274 29.5933 95.7603 28.7427 95.2687 27.774C94.7655 26.8171 94.5197 25.6829 94.5197 24.3953C94.5197 21.9616 95.339 20.0478 96.9658 18.6538C98.6043 17.2598 100.863 16.5746 103.742 16.5746C105.158 16.5746 106.504 16.74 107.803 17.0708C109.079 17.4134 110.425 17.8859 111.83 18.512L109.969 23.0367C108.517 22.4342 107.312 22.0207 106.364 21.7844C105.404 21.5482 104.48 21.4182 103.555 21.4182C102.467 21.4182 101.624 21.6781 101.039 22.1979C100.454 22.7059 100.161 23.3793 100.161 24.2062C100.161 24.726 100.278 25.175 100.512 25.553C100.758 25.931 101.132 26.2973 101.647 26.6635C102.162 27.0179 103.379 27.6676 105.311 28.5891C107.862 29.8177 109.594 31.0464 110.542 32.2868C111.49 33.5272 111.97 35.0276 111.97 36.8232ZM139.205 44.4549H133.458V32.5939H122.667V44.4549H116.897V16.9526H122.667V27.7385H133.458V16.9526H139.205V44.4549ZM170.817 30.6683C170.817 35.2284 169.705 38.7252 167.469 41.1707C165.222 43.6161 162.027 44.8447 157.849 44.8447C153.682 44.8447 150.475 43.6161 148.24 41.1707C145.993 38.7252 144.881 35.2166 144.881 30.6447C144.881 26.061 146.005 22.5641 148.252 20.1541C150.487 17.7323 153.706 16.5273 157.884 16.5273C162.074 16.5273 165.281 17.7442 167.493 20.1778C169.716 22.6114 170.817 26.1082 170.817 30.6683ZM150.932 30.6683C150.932 33.7517 151.517 36.0554 152.664 37.6148C153.823 39.1742 155.555 39.9539 157.849 39.9539C162.46 39.9539 164.766 36.8587 164.766 30.6683C164.766 24.4779 162.472 21.3828 157.884 21.3828C155.59 21.3828 153.858 22.1625 152.688 23.7219C151.529 25.2813 150.932 27.6086 150.932 30.6683ZM182.228 29.9004H184.136C185.915 29.9004 187.249 29.546 188.127 28.8254C189.004 28.1284 189.449 27.0888 189.449 25.7302C189.449 24.3716 189.075 23.3556 188.337 22.7059C187.6 22.0561 186.441 21.7254 184.861 21.7254H182.228V29.9004ZM195.278 25.5294C195.278 28.4946 194.365 30.751 192.527 32.3222C190.701 33.8935 188.091 34.6732 184.709 34.6732H182.228V44.4549H176.458V16.9526H185.154C188.466 16.9526 190.982 17.6733 192.703 19.1027C194.423 20.544 195.278 22.6823 195.278 25.5294Z"
		  fill="black" />
</svg>